# xmcd
#
# Track frame offsets:
# 160
# 13179
# 32108
# 49803
# 60463
# 76515
# 89174
# 108812
# 118883
# 133257
# 149721
# 161615
# 179859
# 192139
# 205403
#
# Disc length: 2877 seconds
#
#
# Revision: 0
# Processed by: cddbd v1.5.2PL0 Copyright (c) Steve Scherf et al.
# Submitted via: FreeRIP 2.951 
#
DISCID=df0b3b0f
DTITLE=PIESNI ROSYJSKIE
DYEAR=2004
DGENRE=Ethnic
TTITLE0=GRAJ GITARO,GRAJ
TTITLE1=KALINA
TTITLE2=A KTO TO WIE
TTITLE3=PIEKNY KSIEZYC
TTITLE4=ZAGAJNIK
TTITLE5=DOLO, MOJA DOLO
TTITLE6=WOLGA, WOLGA
TTITLE7=WYMYSLIL TAK STARY DZIAD
TTITLE8=NIE ZAL MI NICZEGO
TTITLE9=MILY MOJ
TTITLE10=WOLAM NA PROZNO
TTITLE11=BEZLISTNY KLON
TTITLE12=W WISNIOWYM SADKU
TTITLE13=MATENKA
TTITLE14=JESTEM MILOSCIA
EXTD=tonpress
EXTT0=
EXTT1=
EXTT2=
EXTT3=
EXTT4=
EXTT5=
EXTT6=
EXTT7=
EXTT8=
EXTT9=
EXTT10=
EXTT11=
EXTT12=
EXTT13=
EXTT14=
PLAYORDER=
